# xmcd CD database file generated by Grip 2.95
# 
# Track frame offsets:
#       150
#       10480
#       22325
#       33635
#       46397
#       57367
#       72775
#       85227
#       96387
#       107507
#       118870
#       129777
#       141922
#       151877
# 
# Disc length: 2165 seconds
# 
# Revision: 3
# Processed by: cddbd v1.4b42PL1 Copyright (c) Steve Scherf et al.
# Submitted via: Grip 2.95
# 
DISCID=c108730e
DTITLE=Special Consensus - Strong Enoght To Bend
DYEAR=1900
DGENRE=
TTITLE0=Candy Mountain
TTITLE1=Gonna Walk That Line
TTITLE2=I Wonder
TTITLE3=Outbound Plane
TTITLE4=Money Creek
TTITLE5=Ten Miles Tennessee
TTITLE6=The Devil Ain't Lazy
TTITLE7=Strong Enough to Bend
TTITLE8=Call Me A Taxi
TTITLE9=How Was I Supposed To Know
TTITLE10=Third Coast Breakdown
TTITLE11=A Penny For Your Thoughts
TTITLE12=Listening To The Rain
TTITLE13=I Want My Friends To Pray For Me
EXTD=
EXTT0=
EXTT1=
EXTT2=
EXTT3=
EXTT4=
EXTT5=
EXTT6=
EXTT7=
EXTT8=
EXTT9=
EXTT10=
EXTT11=
EXTT12=
EXTT13=
PLAYORDER=
